<?xml version="1.0" encoding="UTF-8"?>
<!DOCTYPE svg PUBLIC "-//W3C//DTD SVG 1.1//EN" "http://www.w3.org/Graphics/SVG/1.1/DTD/svg11.dtd">
<svg xmlns="http://www.w3.org/2000/svg" version="1.1" width="500px" height="500px" style="shape-rendering:geometricPrecision; text-rendering:geometricPrecision; image-rendering:optimizeQuality; fill-rule:evenodd; clip-rule:evenodd" xmlns:xlink="http://www.w3.org/1999/xlink">
<g><path style="opacity:1" fill="#0c1024" d="M 375.5,56.5 C 328.038,78.8153 285.038,107.649 246.5,143C 204.753,181.782 168.086,224.615 136.5,271.5C 136.5,272.5 136.5,273.5 136.5,274.5C 141.445,275.819 146.445,276.986 151.5,278C 165.504,278.973 179.504,279.973 193.5,281C 194.672,281.419 195.672,282.085 196.5,283C 193.058,286.054 189.058,288.054 184.5,289C 164.9,294.222 145.233,294.722 125.5,290.5C 121.856,294.44 118.69,298.774 116,303.5C 109.557,313.384 103.89,323.717 99,334.5C 95.3419,337.11 92.5085,336.276 90.5,332C 91,330.5 91.5,329 92,327.5C 100.183,313.129 108.35,298.796 116.5,284.5C 111.407,273.895 109.907,262.895 112,251.5C 113.388,250.446 114.888,250.28 116.5,251C 120.299,256.108 123.966,261.275 127.5,266.5C 128.548,268.933 129.214,268.933 129.5,266.5C 153.061,233.44 178.561,201.773 206,171.5C 215.696,161.47 225.696,151.803 236,142.5C 231.523,126.955 227.69,111.289 224.5,95.5C 236.013,87.2381 248.347,80.2381 261.5,74.5C 264.476,86.4559 269.643,97.4559 277,107.5C 303.952,86.2702 332.785,67.9369 363.5,52.5C 366.976,51.3567 370.642,51.1901 374.5,52C 375.38,53.3561 375.714,54.8561 375.5,56.5 Z"/></g>
<g><path style="opacity:1" fill="#8c53fc" d="M 363.5,52.5 C 332.785,67.9369 303.952,86.2702 277,107.5C 269.643,97.4559 264.476,86.4559 261.5,74.5C 271.53,68.9958 282.197,64.8291 293.5,62C 316.596,57.01 339.929,53.8433 363.5,52.5 Z"/></g>
<g><path style="opacity:0.994" fill="#8d54fd" d="M 375.5,56.5 C 375.266,79.3671 369.433,100.7 358,120.5C 354.718,124.759 351.218,128.759 347.5,132.5C 326.977,127.949 306.644,122.283 286.5,115.5C 271.805,125.684 257.805,136.851 244.5,149C 253.868,154.512 263.868,158.512 274.5,161C 287.349,164.47 300.349,166.97 313.5,168.5C 306.036,176.465 298.369,184.298 290.5,192C 275.817,192.024 261.151,191.691 246.5,191C 254.936,195.218 263.602,198.885 272.5,202C 274.455,202.953 276.122,204.287 277.5,206C 271.167,213 264.833,220 258.5,227C 235.828,225.121 213.161,223.121 190.5,221C 209.812,226.119 228.979,231.619 248,237.5C 242.734,245.767 236.568,253.601 229.5,261C 214.91,267.545 199.576,270.878 183.5,271C 167.837,271.5 152.17,271.667 136.5,271.5C 168.086,224.615 204.753,181.782 246.5,143C 285.038,107.649 328.038,78.8153 375.5,56.5 Z"/></g>
<g><path style="opacity:1" fill="#8d53fe" d="M 224.5,95.5 C 227.69,111.289 231.523,126.955 236,142.5C 225.696,151.803 215.696,161.47 206,171.5C 178.561,201.773 153.061,233.44 129.5,266.5C 123.167,240.528 123.001,214.528 129,188.5C 130.412,183.351 132.578,178.684 135.5,174.5C 136.906,174.027 137.573,173.027 137.5,171.5C 143.758,161.697 151.425,153.031 160.5,145.5C 163.764,143.906 166.431,141.573 168.5,138.5C 171.211,134.788 174.544,131.788 178.5,129.5C 180.749,128.92 182.415,127.587 183.5,125.5C 196.039,113.961 209.706,103.961 224.5,95.5 Z"/></g>
<g><path style="opacity:1" fill="#060a20" d="M 347.5,132.5 C 336.477,144.855 325.143,156.855 313.5,168.5C 300.349,166.97 287.349,164.47 274.5,161C 263.868,158.512 253.868,154.512 244.5,149C 257.805,136.851 271.805,125.684 286.5,115.5C 306.644,122.283 326.977,127.949 347.5,132.5 Z"/></g>
<g><path style="opacity:0.925" fill="#ba91ff" d="M 183.5,125.5 C 182.415,127.587 180.749,128.92 178.5,129.5C 179.585,127.413 181.251,126.08 183.5,125.5 Z"/></g>
<g><path style="opacity:0.91" fill="#ba91ff" d="M 168.5,138.5 C 166.431,141.573 163.764,143.906 160.5,145.5C 162.569,142.427 165.236,140.094 168.5,138.5 Z"/></g>
<g><path style="opacity:0.954" fill="#e5e5e5" d="M 357.5,160.5 C 370.416,167.256 379.249,177.589 384,191.5C 384.236,193.764 384.736,195.931 385.5,198C 384.953,198.925 384.287,199.758 383.5,200.5C 378.5,185.858 370,173.524 358,163.5C 357.517,162.552 357.351,161.552 357.5,160.5 Z"/></g>
<g><path style="opacity:0.573" fill="#c9a9ff" d="M 137.5,171.5 C 137.573,173.027 136.906,174.027 135.5,174.5C 135.427,172.973 136.094,171.973 137.5,171.5 Z"/></g>
<g><path style="opacity:0.822" fill="#dddddd" d="M 365.5,184.5 C 367.955,197.277 363.622,206.777 352.5,213C 344.255,214.578 336.589,217.411 329.5,221.5C 327.243,221.962 325.243,222.962 323.5,224.5C 323.167,224.167 322.833,223.833 322.5,223.5C 328.625,218.437 335.291,215.104 342.5,213.5C 347.388,211.117 351.555,207.783 355,203.5C 354.454,206.093 352.954,208.26 350.5,210C 356.707,208.282 360.374,204.115 361.5,197.5C 362.394,193.532 363.227,189.532 364,185.5C 364.383,184.944 364.883,184.611 365.5,184.5 Z"/></g>
<g><path style="opacity:0.745" fill="#e8e8e8" d="M 357.5,173.5 C 359.95,180.118 358.784,186.451 354,192.5C 352.167,194.333 350.333,196.167 348.5,198C 340.902,200.346 333.235,201.513 325.5,201.5C 325.709,200.914 326.043,200.414 326.5,200C 333.931,199.02 340.931,196.853 347.5,193.5C 352.926,187.896 356.259,181.229 357.5,173.5 Z"/></g>
<g><path style="opacity:0.707" fill="#e7e7e7" d="M 385.5,186.5 C 386.496,186.414 387.329,186.748 388,187.5C 391.719,194.491 394.553,201.824 396.5,209.5C 396.167,210.5 395.5,211.167 394.5,211.5C 390.513,203.539 387.513,195.206 385.5,186.5 Z"/></g>
<g><path style="opacity:0.031" fill="#f9f9f9" d="M 365.5,184.5 C 366.809,185.624 367.475,187.124 367.5,189C 365.875,194.708 366.375,200.208 369,205.5C 370.684,203.299 372.684,202.633 375,203.5C 375.637,201.697 376.803,200.364 378.5,199.5C 379.558,202.769 381.058,205.769 383,208.5C 383.667,212.5 383.667,216.5 383,220.5C 382,221.833 381,221.833 380,220.5C 378.812,221.563 378.312,222.897 378.5,224.5C 374.465,223.31 371.965,224.977 371,229.5C 364.99,232.062 364.99,233.396 371,233.5C 373.691,232.286 375.858,230.452 377.5,228C 378.577,227.53 379.577,227.697 380.5,228.5C 379.228,244.488 373.728,258.821 364,271.5C 363.683,269.699 363.016,269.366 362,270.5C 354.416,284.752 342.916,294.252 327.5,299C 325.5,299.667 323.5,299.667 321.5,299C 343.958,291.87 359.125,277.37 367,255.5C 362.44,263.393 357.107,270.727 351,277.5C 354.067,269.374 358.234,261.708 363.5,254.5C 363.333,254.167 363.167,253.833 363,253.5C 360.089,256.99 357.422,260.656 355,264.5C 354.667,263.833 354.333,263.167 354,262.5C 352.333,265.833 350.667,269.167 349,272.5C 349.605,267.034 351.605,262.034 355,257.5C 360.709,251.46 366.043,245.126 371,238.5C 371.982,237.241 372.315,235.908 372,234.5C 364.288,243.21 356.955,252.21 350,261.5C 347.324,268.2 344.658,274.867 342,281.5C 342.167,277.812 342.834,274.145 344,270.5C 345.806,266.095 347.472,261.762 349,257.5C 347.088,259.657 345.421,261.991 344,264.5C 341.771,271.583 339.438,278.583 337,285.5C 338.462,278.234 339.962,270.901 341.5,263.5C 341.154,262.304 340.654,262.304 340,263.5C 339.333,264.833 338.667,266.167 338,267.5C 337.29,274.098 335.624,280.431 333,286.5C 333.994,279.371 335.16,272.204 336.5,265C 336.333,264.5 336.167,264 336,263.5C 335.059,265.727 333.892,267.727 332.5,269.5C 332.328,273.534 331.828,277.534 331,281.5C 330.617,282.056 330.117,282.389 329.5,282.5C 330.218,280.863 330.384,279.197 330,277.5C 328.864,279.743 328.03,282.076 327.5,284.5C 326.167,285.167 326.167,285.833 327.5,286.5C 326.972,287.721 326.305,288.887 325.5,290C 323.209,292.34 320.542,293.673 317.5,294C 324.712,286.917 328.712,278.917 329.5,270C 321.906,270.211 315.406,273.044 310,278.5C 309.833,278.167 309.667,277.833 309.5,277.5C 311.944,275.105 314.61,272.938 317.5,271C 323.232,268.817 328.898,266.484 334.5,264C 328.658,264.251 322.991,265.251 317.5,267C 327.517,261.795 337.85,258.129 348.5,256C 347.833,255.667 347.167,255.333 346.5,255C 348.67,253.414 351.004,252.08 353.5,251C 354.696,250.346 354.696,249.846 353.5,249.5C 349.889,251.475 346.223,253.142 342.5,254.5C 341.833,253.167 341.167,253.167 340.5,254.5C 337.833,254.833 337.833,255.167 340.5,255.5C 339.791,256.404 338.791,256.737 337.5,256.5C 336.151,255.356 335.817,255.356 336.5,256.5C 331.268,258.809 325.935,261.143 320.5,263.5C 319.304,263.154 319.304,262.654 320.5,262C 332.882,255.759 345.548,250.092 358.5,245C 362.299,242.203 365.799,239.036 369,235.5C 369.667,234.833 369.667,234.167 369,233.5C 358.927,243.788 346.761,250.288 332.5,253C 327.657,255.422 322.99,257.755 318.5,260C 325.844,254.324 333.844,249.657 342.5,246C 341.5,245.333 340.5,245.333 339.5,246C 332.657,249.422 325.99,252.755 319.5,256C 328.335,250.415 337.335,245.081 346.5,240C 349.965,237.537 353.131,234.704 356,231.5C 356.667,230.833 356.667,230.167 356,229.5C 352.799,233.036 349.299,236.203 345.5,239C 335.321,244.417 325.321,249.75 315.5,255C 317.871,252.294 320.537,249.961 323.5,248C 332.167,242.667 340.833,237.333 349.5,232C 353.334,229.21 355.834,225.71 357,221.5C 344.741,230.862 331.907,239.028 318.5,246C 319.833,244.667 321.167,243.333 322.5,242C 321.833,241.333 321.167,241.333 320.5,242C 305.746,254.99 299.579,271.157 302,290.5C 302.873,293.618 304.039,296.618 305.5,299.5C 305.137,300.183 304.804,300.85 304.5,301.5C 303.71,300.391 303.21,299.058 303,297.5C 302.333,299.5 301.667,301.5 301,303.5C 300,292.176 299.667,280.843 300,269.5C 304.778,251.384 315.944,238.884 333.5,232C 318.99,235.363 308.49,243.863 302,257.5C 299.443,264.287 297.777,271.287 297,278.5C 296.513,254.987 307.346,239.154 329.5,231C 324.819,230.335 320.486,231.335 316.5,234C 295.78,248.312 288.613,267.812 295,292.5C 292.351,281.975 291.351,271.308 292,260.5C 296.32,247.505 303.82,236.672 314.5,228C 308.513,231.643 303.347,236.476 299,242.5C 298.685,241.092 299.018,239.759 300,238.5C 308.503,226.334 319.669,217.501 333.5,212C 330.425,211.861 327.425,212.361 324.5,213.5C 324.953,212.542 325.619,211.708 326.5,211C 325.552,210.517 324.552,210.351 323.5,210.5C 326.258,209.033 325.925,208.367 322.5,208.5C 323.997,207.694 325.664,207.028 327.5,206.5C 330.028,207.517 330.028,208.684 327.5,210C 329.833,210.333 332.167,210.667 334.5,211C 335.126,211.75 335.626,212.584 336,213.5C 341.726,211.108 346.226,207.274 349.5,202C 354.009,201.608 358.009,200.108 361.5,197.5C 360.374,204.115 356.707,208.282 350.5,210C 352.954,208.26 354.454,206.093 355,203.5C 351.555,207.783 347.388,211.117 342.5,213.5C 335.291,215.104 328.625,218.437 322.5,223.5C 322.833,223.833 323.167,224.167 323.5,224.5C 325.243,222.962 327.243,221.962 329.5,221.5C 336.589,217.411 344.255,214.578 352.5,213C 363.622,206.777 367.955,197.277 365.5,184.5 Z M 366.5,207.5 C 367.748,208.334 368.415,209.667 368.5,211.5C 368.003,218.166 365.169,223.499 360,227.5C 359.25,226.874 358.416,226.374 357.5,226C 358.719,223.717 358.719,221.384 357.5,219C 360.725,215.283 363.725,211.45 366.5,207.5 Z M 375.5,204.5 C 376.163,206.473 376.496,208.639 376.5,211C 376.609,213.7 376.109,216.2 375,218.5C 374.352,213.796 374.519,209.129 375.5,204.5 Z M 327.5,217.5 C 328.002,215.915 329.002,215.415 330.5,216C 329.756,217.039 328.756,217.539 327.5,217.5 Z M 327.5,217.5 C 326.486,218.674 325.153,219.34 323.5,219.5C 324.287,217.896 325.62,217.229 327.5,217.5 Z M 323.5,219.5 C 322.304,222.221 320.304,223.387 317.5,223C 319.391,221.558 321.391,220.391 323.5,219.5 Z M 329.5,221.5 C 331.677,221.414 333.677,220.747 335.5,219.5C 337.868,221.223 340.534,221.89 343.5,221.5C 343.313,223.564 342.813,225.564 342,227.5C 339.75,228.708 337.583,230.041 335.5,231.5C 333.774,229.97 331.774,228.97 329.5,228.5C 325.211,229.129 321.044,230.129 317,231.5C 317.055,229.892 317.888,228.558 319.5,227.5C 323.529,226.493 326.862,224.493 329.5,221.5 Z M 373.5,236.5 C 374.097,236.735 374.43,237.235 374.5,238C 373.922,239.811 373.422,241.645 373,243.5C 370.608,246.228 368.608,249.228 367,252.5C 365.795,251.929 364.628,251.262 363.5,250.5C 367.246,246.094 370.58,241.427 373.5,236.5 Z M 308.5,237.5 C 308.167,238.5 307.5,239.167 306.5,239.5C 306.5,238.167 307.167,237.5 308.5,237.5 Z M 306.5,239.5 C 306.167,240.5 305.5,241.167 304.5,241.5C 304.5,240.167 305.167,239.5 306.5,239.5 Z M 342.5,259.5 C 345.797,259.329 346.131,259.995 343.5,261.5C 342.702,261.043 342.369,260.376 342.5,259.5 Z M 322.5,277.5 C 324.973,277.947 325.14,278.947 323,280.5C 321.272,279.648 321.105,278.648 322.5,277.5 Z M 329.5,282.5 C 329.167,283.5 328.5,284.167 327.5,284.5C 328.03,282.076 328.864,279.743 330,277.5C 330.384,279.197 330.218,280.863 329.5,282.5 Z"/></g>
<g><path style="opacity:0.824" fill="#e4e4e4" d="M 322.5,208.5 C 325.925,208.367 326.258,209.033 323.5,210.5C 301.25,217.924 288.083,233.258 284,256.5C 283.144,274.813 284.811,292.813 289,310.5C 289.167,308.833 289.333,307.167 289.5,305.5C 288.871,297.738 288.038,290.071 287,282.5C 288.61,285.597 289.61,288.931 290,292.5C 290.667,298.5 291.333,304.5 292,310.5C 291.895,295.514 290.062,280.847 286.5,266.5C 286.273,257.195 287.773,248.195 291,239.5C 291,241.5 291,243.5 291,245.5C 292.136,243.257 292.97,240.924 293.5,238.5C 294.833,235.833 296.167,233.167 297.5,230.5C 298.833,229.833 299.833,228.833 300.5,227.5C 304.909,226.377 308.909,223.877 312.5,220C 316.155,217.173 320.155,215.007 324.5,213.5C 327.425,212.361 330.425,211.861 333.5,212C 319.669,217.501 308.503,226.334 300,238.5C 299.018,239.759 298.685,241.092 299,242.5C 303.347,236.476 308.513,231.643 314.5,228C 303.82,236.672 296.32,247.505 292,260.5C 291.351,271.308 292.351,281.975 295,292.5C 288.613,267.812 295.78,248.312 316.5,234C 320.486,231.335 324.819,230.335 329.5,231C 307.346,239.154 296.513,254.987 297,278.5C 297.777,271.287 299.443,264.287 302,257.5C 308.49,243.863 318.99,235.363 333.5,232C 315.944,238.884 304.778,251.384 300,269.5C 299.667,280.843 300,292.176 301,303.5C 301.667,301.5 302.333,299.5 303,297.5C 303.21,299.058 303.71,300.391 304.5,301.5C 322.532,304.734 338.865,300.234 353.5,288C 359.035,282.297 364.702,276.797 370.5,271.5C 368.577,274.603 366.41,277.603 364,280.5C 360.333,283.001 357.166,286.001 354.5,289.5C 359.349,287.164 363.516,283.831 367,279.5C 367.915,280.328 368.581,281.328 369,282.5C 371.417,279.598 373.584,276.598 375.5,273.5C 377.268,270.394 378.768,267.061 380,263.5C 379.192,271.954 376.026,279.454 370.5,286C 371.252,286.671 371.586,287.504 371.5,288.5C 363.876,295.281 355.543,301.115 346.5,306C 331.529,310.092 316.529,314.092 301.5,318C 304.944,317.914 308.277,317.08 311.5,315.5C 313.098,316.485 314.765,316.651 316.5,316C 314.405,315.444 314.238,314.944 316,314.5C 317.5,315 319,315.5 320.5,316C 319.5,316.333 318.5,316.667 317.5,317C 328.147,316.63 338.314,314.13 348,309.5C 349.762,309.944 349.595,310.444 347.5,311C 349,311.5 350.5,312 352,312.5C 357.23,310.8 362.063,308.467 366.5,305.5C 367.847,304.972 369.181,304.805 370.5,305C 364.226,309.971 357.226,313.638 349.5,316C 350.167,316.333 350.833,316.667 351.5,317C 339.66,321.741 327.326,324.074 314.5,324C 309.044,324.908 303.711,326.241 298.5,328C 311.111,326.672 323.778,325.339 336.5,324C 345.602,321.781 353.936,317.948 361.5,312.5C 362.696,312.846 362.696,313.346 361.5,314C 354.548,319.31 346.881,323.31 338.5,326C 326.522,327.831 314.522,329.497 302.5,331C 333.927,334.036 359.26,323.202 378.5,298.5C 378.969,297.255 379.303,297.421 379.5,299C 373.943,309.226 366.276,317.559 356.5,324C 352.5,326 348.5,328 344.5,330C 344.736,331.117 344.736,332.284 344.5,333.5C 340.025,335.286 335.358,336.452 330.5,337C 320.496,337.447 310.496,337.281 300.5,336.5C 295.749,336.427 291.083,336.927 286.5,338C 290.516,338.186 294.516,338.186 298.5,338C 295.289,339.153 291.956,339.82 288.5,340C 297.158,340.12 305.825,339.953 314.5,339.5C 323.297,339.232 329.963,339.898 334.5,341.5C 339.745,341.608 344.745,340.942 349.5,339.5C 351.679,338.941 353.846,338.274 356,337.5C 357.221,338.272 358.221,339.272 359,340.5C 365.428,337.857 371.928,335.69 378.5,334C 366.851,342.905 353.685,347.738 339,348.5C 328.132,347.647 317.299,346.814 306.5,346C 311.745,347.43 317.078,348.43 322.5,349C 332.855,349.47 343.188,349.47 353.5,349C 352.449,350.385 351.116,351.385 349.5,352C 340.292,354.123 330.959,354.956 321.5,354.5C 321.5,355.833 321.5,357.167 321.5,358.5C 326.708,357.558 331.875,356.558 337,355.5C 338.487,356.253 338.654,357.086 337.5,358C 324.657,363.392 311.657,368.392 298.5,373C 306.771,372.098 314.771,369.931 322.5,366.5C 323.731,367.651 323.731,368.817 322.5,370C 317.659,372.722 312.659,375.056 307.5,377C 314.534,376.074 321.034,373.574 327,369.5C 328.23,370.275 328.563,371.275 328,372.5C 311.86,383.596 294.027,388.096 274.5,386C 277.257,386.878 279.924,387.878 282.5,389C 281.056,390.064 279.389,390.564 277.5,390.5C 274.497,389.862 271.497,389.695 268.5,390C 271.901,389.734 273.567,391.234 273.5,394.5C 276.303,395.067 278.636,396.4 280.5,398.5C 279.286,400.069 277.619,400.902 275.5,401C 266.766,401.589 258.766,399.423 251.5,394.5C 251.167,394.667 250.833,394.833 250.5,395C 252.007,395.837 252.507,397.004 252,398.5C 246.71,395.043 241.877,391.043 237.5,386.5C 237.902,391.577 240.236,395.41 244.5,398C 243.672,398.915 242.672,399.581 241.5,400C 244.017,402.349 246.35,404.849 248.5,407.5C 247.998,408.521 247.332,408.688 246.5,408C 240.242,403.023 233.575,399.023 226.5,396C 230.683,399.174 233.683,403.174 235.5,408C 235.167,408.167 234.833,408.333 234.5,408.5C 231.375,405.877 228.375,403.044 225.5,400C 222.966,398.066 220.299,396.732 217.5,396C 223.145,400.681 222.812,402.014 216.5,400C 219.463,401.961 222.129,404.294 224.5,407C 223.672,407.915 222.672,408.581 221.5,409C 223.333,411.5 225.167,414 227,416.5C 227.688,417.332 227.521,417.998 226.5,418.5C 221.83,414.33 217.497,409.83 213.5,405C 209.233,401.348 204.567,398.681 199.5,397C 202.528,399.26 204.362,402.094 205,405.5C 201.133,401.298 196.967,397.465 192.5,394C 191.833,393.333 191.167,393.333 190.5,394C 192.638,395.422 193.805,397.255 194,399.5C 189.952,395.784 185.618,392.45 181,389.5C 174.508,389.093 168.841,386.426 164,381.5C 162.951,382.517 161.784,382.684 160.5,382C 157.104,378.468 154.438,374.468 152.5,370C 149.667,368.833 146.833,367.667 144,366.5C 142.743,366.85 142.409,367.517 143,368.5C 152.287,375.779 159.287,384.779 164,395.5C 165.588,400.464 165.755,405.464 164.5,410.5C 162.008,404.581 159.508,398.581 157,392.5C 156.937,394.96 157.104,397.46 157.5,400C 157.577,402.051 157.077,403.884 156,405.5C 155,401.833 154,398.167 153,394.5C 149.078,386.984 144.411,379.984 139,373.5C 137.275,370.326 135.942,366.993 135,363.5C 128.061,360.188 121.227,356.688 114.5,353C 111.69,349.953 112.357,348.62 116.5,349C 128.262,355.131 140.429,360.298 153,364.5C 157.536,361.125 161.869,357.458 166,353.5C 166.5,353.833 167,354.167 167.5,354.5C 166.294,357.079 164.961,359.579 163.5,362C 168.316,361.183 172.816,359.35 177,356.5C 178.059,356.63 178.892,357.13 179.5,358C 176.98,359.763 174.647,361.763 172.5,364C 172.833,364.167 173.167,364.333 173.5,364.5C 179.126,361.199 184.126,357.199 188.5,352.5C 188.965,355.323 187.965,357.823 185.5,360C 191.132,358.046 195.298,354.213 198,348.5C 199.044,349.623 199.71,350.956 200,352.5C 200.892,349.048 202.558,346.048 205,343.5C 206.732,346.526 206.566,349.526 204.5,352.5C 206.608,353.944 208.941,354.61 211.5,354.5C 211.141,352.234 211.808,350.401 213.5,349C 212.299,348.097 211.465,346.931 211,345.5C 206.241,342.301 201.075,339.968 195.5,338.5C 196.991,337.756 198.491,337.09 200,336.5C 204.583,337.602 209.083,338.102 213.5,338C 218.293,342.085 221.126,347.251 222,353.5C 223.769,347.288 224.935,340.955 225.5,334.5C 226.478,334.977 227.311,335.643 228,336.5C 228.689,335.643 229.522,334.977 230.5,334.5C 231.948,336.667 233.115,339 234,341.5C 235.656,330.643 232.156,321.81 223.5,315C 224.833,315 226.167,315 227.5,315C 217.152,308.477 207.652,309.643 199,318.5C 200.349,313.149 203.849,309.649 209.5,308C 222.69,304.949 232.857,309.116 240,320.5C 240.854,315.13 243.021,310.464 246.5,306.5C 248.798,308.485 248.632,310.485 246,312.5C 245.333,315.167 245.333,317.833 246,320.5C 251.038,310.387 255.038,299.721 258,288.5C 258.333,288.833 258.667,289.167 259,289.5C 259.667,288.167 260.333,286.833 261,285.5C 261.333,286.5 261.667,287.5 262,288.5C 262.757,286.685 263.59,285.019 264.5,283.5C 265.147,284.274 265.48,285.274 265.5,286.5C 262.179,296.813 258.013,306.813 253,316.5C 252.333,321.167 252.333,325.833 253,330.5C 253.084,324.983 254.084,319.649 256,314.5C 259,308.5 262,302.5 265,296.5C 265.167,297.167 265.333,297.833 265.5,298.5C 261.778,305.943 258.611,313.61 256,321.5C 255.519,332.184 255.853,342.851 257,353.5C 258.077,351.884 258.577,350.051 258.5,348C 256.922,340.56 256.422,333.06 257,325.5C 257.084,332.417 258.417,339.084 261,345.5C 261.162,340.131 260.662,334.798 259.5,329.5C 260.023,325.511 260.356,321.511 260.5,317.5C 262.067,313.302 263.567,308.969 265,304.5C 265.312,309.269 264.645,313.935 263,318.5C 262.333,323.833 262.333,329.167 263,334.5C 262.987,327.008 263.987,319.674 266,312.5C 266.206,316.893 265.706,321.227 264.5,325.5C 265.254,328.777 265.754,332.11 266,335.5C 266.333,329.833 266.667,324.167 267,318.5C 267.763,315.937 268.263,315.937 268.5,318.5C 267.985,320.636 267.651,322.803 267.5,325C 268.133,331.489 268.633,337.989 269,344.5C 270.103,342.371 270.603,340.037 270.5,337.5C 269.994,333.487 269.828,329.487 270,325.5C 270.199,327.402 271.033,328.902 272.5,330C 271.409,332.064 271.242,334.231 272,336.5C 272.333,335.5 272.667,334.5 273,333.5C 273.333,335.167 273.667,336.833 274,338.5C 274.944,337.737 275.444,336.737 275.5,335.5C 269.023,321.617 267.023,307.117 269.5,292C 269.384,286.863 268.384,282.029 266.5,277.5C 265.27,268.996 266.104,260.663 269,252.5C 270.191,248.178 271.525,247.845 273,251.5C 276.228,243.941 279.894,236.608 284,229.5C 285.11,227.963 286.61,227.297 288.5,227.5C 285.642,234.886 282.476,242.22 279,249.5C 274.857,258.869 273.857,268.535 276,278.5C 276.113,280.974 277.113,282.974 279,284.5C 276.871,264.475 280.871,245.808 291,228.5C 296.924,222.572 303.424,217.406 310.5,213C 314.342,210.998 318.342,209.498 322.5,208.5 Z M 300.5,227.5 C 299.833,228.833 298.833,229.833 297.5,230.5C 297.5,228.5 298.5,227.5 300.5,227.5 Z M 297.5,230.5 C 296.167,233.167 294.833,235.833 293.5,238.5C 292.427,237.749 292.26,236.749 293,235.5C 294.049,233.382 295.549,231.716 297.5,230.5 Z M 308.5,237.5 C 308.167,238.5 307.5,239.167 306.5,239.5C 306.5,238.167 307.167,237.5 308.5,237.5 Z M 306.5,239.5 C 306.167,240.5 305.5,241.167 304.5,241.5C 304.5,240.167 305.167,239.5 306.5,239.5 Z M 375.5,273.5 C 373.584,276.598 371.417,279.598 369,282.5C 368.581,281.328 367.915,280.328 367,279.5C 363.516,283.831 359.349,287.164 354.5,289.5C 357.166,286.001 360.333,283.001 364,280.5C 366.41,277.603 368.577,274.603 370.5,271.5C 371.167,271.5 371.5,271.167 371.5,270.5C 372.962,269.542 374.295,268.376 375.5,267C 376.167,266.333 376.833,266.333 377.5,267C 376.331,269.007 375.665,271.173 375.5,273.5 Z M 286.5,266.5 C 286.782,271.522 286.949,276.522 287,281.5C 285.066,277.621 284.233,273.454 284.5,269C 284.667,266.5 284.833,264 285,261.5C 285.198,263.382 285.698,265.048 286.5,266.5 Z M 322.5,277.5 C 321.105,278.648 321.272,279.648 323,280.5C 325.14,278.947 324.973,277.947 322.5,277.5 Z M 329.5,282.5 C 329.167,283.5 328.5,284.167 327.5,284.5C 328.03,282.076 328.864,279.743 330,277.5C 330.384,279.197 330.218,280.863 329.5,282.5 Z M 260.5,317.5 C 259.732,318.263 259.232,319.263 259,320.5C 258.226,318.597 258.56,316.93 260,315.5C 260.464,316.094 260.631,316.761 260.5,317.5 Z M 233.5,320.5 C 236.496,323.497 238.163,327.164 238.5,331.5C 236.597,328.021 234.93,324.354 233.5,320.5 Z M 300.5,357.5 C 311.745,357.084 312.078,358.084 301.5,360.5C 300.614,359.675 300.281,358.675 300.5,357.5 Z M 321.5,358.5 C 319.267,361.188 317.267,361.021 315.5,358C 317.488,357.82 319.488,357.986 321.5,358.5 Z M 304.5,363.5 C 308.221,363.793 308.055,364.459 304,365.5C 303.5,365.333 303,365.167 302.5,365C 303.416,364.722 304.082,364.222 304.5,363.5 Z M 178.5,367.5 C 177.928,370.244 176.262,371.077 173.5,370C 174.653,368.117 176.319,367.284 178.5,367.5 Z M 168.5,376.5 C 171.072,375.744 173.405,376.577 175.5,379C 173.011,378.763 170.678,377.929 168.5,376.5 Z M 302.5,377.5 C 303.873,377.343 305.207,377.51 306.5,378C 301.686,380.06 296.686,380.727 291.5,380C 295.43,379.758 299.097,378.925 302.5,377.5 Z M 183.5,382.5 C 182.244,382.539 181.244,382.039 180.5,381C 181.998,380.415 182.998,380.915 183.5,382.5 Z M 237.5,386.5 C 235.804,386.315 234.471,385.481 233.5,384C 235.412,383.721 236.746,384.554 237.5,386.5 Z M 227.5,387.5 C 230.46,387.662 232.293,388.995 233,391.5C 230.985,390.303 229.151,388.97 227.5,387.5 Z M 256.5,390.5 C 261.967,392.594 267.633,393.927 273.5,394.5C 273.03,395.693 272.03,396.36 270.5,396.5C 265.145,395.835 260.478,393.835 256.5,390.5 Z"/></g>
<g><path style="opacity:0.749" fill="#dddddd" d="M 336.5,256.5 C 336.833,256.5 337.167,256.5 337.5,256.5C 338.791,256.737 339.791,256.404 340.5,255.5C 340.5,255.167 340.5,254.833 340.5,254.5C 341.167,254.5 341.833,254.5 342.5,254.5C 346.223,253.142 349.889,251.475 353.5,249.5C 354.696,249.846 354.696,250.346 353.5,251C 351.004,252.08 348.67,253.414 346.5,255C 347.167,255.333 347.833,255.667 348.5,256C 337.85,258.129 327.517,261.795 317.5,267C 322.991,265.251 328.658,264.251 334.5,264C 328.898,266.484 323.232,268.817 317.5,271C 314.61,272.938 311.944,275.105 309.5,277.5C 309.667,277.833 309.833,278.167 310,278.5C 315.406,273.044 321.906,270.211 329.5,270C 328.712,278.917 324.712,286.917 317.5,294C 320.542,293.673 323.209,292.34 325.5,290C 326.305,288.887 326.972,287.721 327.5,286.5C 327.5,285.833 327.5,285.167 327.5,284.5C 328.5,284.167 329.167,283.5 329.5,282.5C 330.117,282.389 330.617,282.056 331,281.5C 331.828,277.534 332.328,273.534 332.5,269.5C 333.892,267.727 335.059,265.727 336,263.5C 336.167,264 336.333,264.5 336.5,265C 335.16,272.204 333.994,279.371 333,286.5C 335.624,280.431 337.29,274.098 338,267.5C 338.667,266.167 339.333,264.833 340,263.5C 340.654,262.304 341.154,262.304 341.5,263.5C 339.962,270.901 338.462,278.234 337,285.5C 339.438,278.583 341.771,271.583 344,264.5C 345.421,261.991 347.088,259.657 349,257.5C 347.472,261.762 345.806,266.095 344,270.5C 342.834,274.145 342.167,277.812 342,281.5C 344.658,274.867 347.324,268.2 350,261.5C 356.955,252.21 364.288,243.21 372,234.5C 372.315,235.908 371.982,237.241 371,238.5C 366.043,245.126 360.709,251.46 355,257.5C 351.605,262.034 349.605,267.034 349,272.5C 350.667,269.167 352.333,265.833 354,262.5C 354.333,263.167 354.667,263.833 355,264.5C 357.422,260.656 360.089,256.99 363,253.5C 363.167,253.833 363.333,254.167 363.5,254.5C 358.234,261.708 354.067,269.374 351,277.5C 357.107,270.727 362.44,263.393 367,255.5C 359.125,277.37 343.958,291.87 321.5,299C 323.5,299.667 325.5,299.667 327.5,299C 342.916,294.252 354.416,284.752 362,270.5C 363.016,269.366 363.683,269.699 364,271.5C 373.728,258.821 379.228,244.488 380.5,228.5C 381.521,228.899 381.854,230.233 381.5,232.5C 381.237,243.15 378.571,253.15 373.5,262.5C 373.667,262.833 373.833,263.167 374,263.5C 375,262.167 376,260.833 377,259.5C 377.167,259.833 377.333,260.167 377.5,260.5C 375.477,263.889 373.477,267.222 371.5,270.5C 371.5,271.167 371.167,271.5 370.5,271.5C 364.702,276.797 359.035,282.297 353.5,288C 338.865,300.234 322.532,304.734 304.5,301.5C 304.804,300.85 305.137,300.183 305.5,299.5C 304.039,296.618 302.873,293.618 302,290.5C 299.579,271.157 305.746,254.99 320.5,242C 321.167,241.333 321.833,241.333 322.5,242C 321.167,243.333 319.833,244.667 318.5,246C 331.907,239.028 344.741,230.862 357,221.5C 355.834,225.71 353.334,229.21 349.5,232C 340.833,237.333 332.167,242.667 323.5,248C 320.537,249.961 317.871,252.294 315.5,255C 325.321,249.75 335.321,244.417 345.5,239C 349.299,236.203 352.799,233.036 356,229.5C 356.667,230.167 356.667,230.833 356,231.5C 353.131,234.704 349.965,237.537 346.5,240C 337.335,245.081 328.335,250.415 319.5,256C 325.99,252.755 332.657,249.422 339.5,246C 340.5,245.333 341.5,245.333 342.5,246C 333.844,249.657 325.844,254.324 318.5,260C 322.99,257.755 327.657,255.422 332.5,253C 346.761,250.288 358.927,243.788 369,233.5C 369.667,234.167 369.667,234.833 369,235.5C 365.799,239.036 362.299,242.203 358.5,245C 345.548,250.092 332.882,255.759 320.5,262C 319.304,262.654 319.304,263.154 320.5,263.5C 325.935,261.143 331.268,258.809 336.5,256.5 Z M 373.5,236.5 C 370.58,241.427 367.246,246.094 363.5,250.5C 364.628,251.262 365.795,251.929 367,252.5C 368.608,249.228 370.608,246.228 373,243.5C 373.422,241.645 373.922,239.811 374.5,238C 374.43,237.235 374.097,236.735 373.5,236.5 Z M 342.5,259.5 C 342.369,260.376 342.702,261.043 343.5,261.5C 346.131,259.995 345.797,259.329 342.5,259.5 Z M 322.5,277.5 C 321.105,278.648 321.272,279.648 323,280.5C 325.14,278.947 324.973,277.947 322.5,277.5 Z M 329.5,282.5 C 329.167,283.5 328.5,284.167 327.5,284.5C 328.03,282.076 328.864,279.743 330,277.5C 330.384,279.197 330.218,280.863 329.5,282.5 Z"/></g>
<g><path style="opacity:0.03" fill="#f0f0f0" d="M 366.5,305.5 C 362.063,308.467 357.23,310.8 352,312.5C 350.5,312 349,311.5 347.5,311C 349.595,310.444 349.762,309.944 348,309.5C 338.314,314.13 328.147,316.63 317.5,317C 318.5,316.667 319.5,316.333 320.5,316C 319,315.5 317.5,315 316,314.5C 314.238,314.944 314.405,315.444 316.5,316C 314.765,316.651 313.098,316.485 311.5,315.5C 308.277,317.08 304.944,317.914 301.5,318C 316.529,314.092 331.529,310.092 346.5,306C 355.543,301.115 363.876,295.281 371.5,288.5C 371.586,287.504 371.252,286.671 370.5,286C 376.026,279.454 379.192,271.954 380,263.5C 378.768,267.061 377.268,270.394 375.5,273.5C 375.665,271.173 376.331,269.007 377.5,267C 376.833,266.333 376.167,266.333 375.5,267C 374.295,268.376 372.962,269.542 371.5,270.5C 373.477,267.222 375.477,263.889 377.5,260.5C 377.333,260.167 377.167,259.833 377,259.5C 376,260.833 375,262.167 374,263.5C 373.833,263.167 373.667,262.833 373.5,262.5C 378.571,253.15 381.237,243.15 381.5,232.5C 382.92,237.989 382.587,243.489 380.5,249C 381.025,249.692 381.692,250.192 382.5,250.5C 383.589,245.645 385.089,240.978 387,236.5C 387.374,234.102 387.374,231.769 387,229.5C 388,228.167 389,228.167 390,229.5C 393.476,242.774 392.976,255.941 388.5,269C 388.63,270.059 389.13,270.892 390,271.5C 392.803,263.763 394.469,255.763 395,247.5C 395.333,247.833 395.667,248.167 396,248.5C 396.247,239.779 396.414,231.112 396.5,222.5C 397.086,222.709 397.586,223.043 398,223.5C 399.655,229.765 400.989,236.098 402,242.5C 402.333,241.833 402.667,241.167 403,240.5C 403.245,244.853 403.245,249.187 403,253.5C 403.667,252.167 404.333,250.833 405,249.5C 404.806,253.947 403.806,258.28 402,262.5C 396.667,271.833 391.333,281.167 386,290.5C 384.291,293.116 382.124,294.116 379.5,293.5C 377.035,294.132 375.369,295.632 374.5,298C 372.744,298.202 371.078,298.702 369.5,299.5C 368.52,300.981 367.353,302.315 366,303.5C 365.308,304.437 365.475,305.103 366.5,305.5 Z M 383.5,253.5 C 384.532,255.434 385.198,257.6 385.5,260C 384.601,265.605 382.934,270.938 380.5,276C 379.833,276.667 379.167,276.667 378.5,276C 381.145,271.88 382.479,267.38 382.5,262.5C 381.127,262.657 379.793,262.49 378.5,262C 380.052,259.057 381.719,256.223 383.5,253.5 Z M 371.5,288.5 C 374.002,286.83 376.002,284.664 377.5,282C 378.908,281.685 380.241,282.018 381.5,283C 376.746,286.421 372.579,290.587 369,295.5C 366.667,297.167 364.333,298.833 362,300.5C 362.097,297.789 363.597,295.956 366.5,295C 368.79,293.223 370.457,291.056 371.5,288.5 Z"/></g>
<g><path style="opacity:0.008" fill="#d1d1d6" d="M 127.5,266.5 C 128.167,266.5 128.833,266.5 129.5,266.5C 129.214,268.933 128.548,268.933 127.5,266.5 Z"/></g>
<g><path style="opacity:0.021" fill="#f9f9f9" d="M 323.5,210.5 C 315.464,214.608 307.964,219.608 301,225.5C 300.536,226.094 300.369,226.761 300.5,227.5C 298.5,227.5 297.5,228.5 297.5,230.5C 295.549,231.716 294.049,233.382 293,235.5C 292.26,236.749 292.427,237.749 293.5,238.5C 292.97,240.924 292.136,243.257 291,245.5C 291,243.5 291,241.5 291,239.5C 287.773,248.195 286.273,257.195 286.5,266.5C 290.062,280.847 291.895,295.514 292,310.5C 291.333,304.5 290.667,298.5 290,292.5C 289.61,288.931 288.61,285.597 287,282.5C 288.038,290.071 288.871,297.738 289.5,305.5C 289.333,307.167 289.167,308.833 289,310.5C 284.811,292.813 283.144,274.813 284,256.5C 288.083,233.258 301.25,217.924 323.5,210.5 Z M 286.5,266.5 C 285.698,265.048 285.198,263.382 285,261.5C 284.833,264 284.667,266.5 284.5,269C 284.233,273.454 285.066,277.621 287,281.5C 286.949,276.522 286.782,271.522 286.5,266.5 Z"/></g>
<g><path style="opacity:0.029" fill="#f8f8f8" d="M 266.5,277.5 C 268.384,282.029 269.384,286.863 269.5,292C 267.023,307.117 269.023,321.617 275.5,335.5C 275.444,336.737 274.944,337.737 274,338.5C 273.667,336.833 273.333,335.167 273,333.5C 272.667,334.5 272.333,335.5 272,336.5C 271.242,334.231 271.409,332.064 272.5,330C 271.033,328.902 270.199,327.402 270,325.5C 269.828,329.487 269.994,333.487 270.5,337.5C 270.603,340.037 270.103,342.371 269,344.5C 268.633,337.989 268.133,331.489 267.5,325C 267.651,322.803 267.985,320.636 268.5,318.5C 268.263,315.937 267.763,315.937 267,318.5C 266.667,324.167 266.333,329.833 266,335.5C 265.754,332.11 265.254,328.777 264.5,325.5C 265.706,321.227 266.206,316.893 266,312.5C 263.987,319.674 262.987,327.008 263,334.5C 262.333,329.167 262.333,323.833 263,318.5C 264.645,313.935 265.312,309.269 265,304.5C 263.567,308.969 262.067,313.302 260.5,317.5C 260.356,321.511 260.023,325.511 259.5,329.5C 260.662,334.798 261.162,340.131 261,345.5C 258.417,339.084 257.084,332.417 257,325.5C 256.422,333.06 256.922,340.56 258.5,348C 258.577,350.051 258.077,351.884 257,353.5C 255.853,342.851 255.519,332.184 256,321.5C 258.611,313.61 261.778,305.943 265.5,298.5C 265.333,297.833 265.167,297.167 265,296.5C 262,302.5 259,308.5 256,314.5C 254.084,319.649 253.084,324.983 253,330.5C 252.333,325.833 252.333,321.167 253,316.5C 258.013,306.813 262.179,296.813 265.5,286.5C 265.48,285.274 265.147,284.274 264.5,283.5C 264.704,281.315 265.37,279.315 266.5,277.5 Z M 260.5,317.5 C 260.631,316.761 260.464,316.094 260,315.5C 258.56,316.93 258.226,318.597 259,320.5C 259.232,319.263 259.732,318.263 260.5,317.5 Z"/></g>
<g><path style="opacity:0.033" fill="#f9f9f9" d="M 378.5,298.5 C 359.26,323.202 333.927,334.036 302.5,331C 314.522,329.497 326.522,327.831 338.5,326C 346.881,323.31 354.548,319.31 361.5,314C 362.696,313.346 362.696,312.846 361.5,312.5C 353.936,317.948 345.602,321.781 336.5,324C 323.778,325.339 311.111,326.672 298.5,328C 303.711,326.241 309.044,324.908 314.5,324C 327.326,324.074 339.66,321.741 351.5,317C 350.833,316.667 350.167,316.333 349.5,316C 357.226,313.638 364.226,309.971 370.5,305C 369.181,304.805 367.847,304.972 366.5,305.5C 370.936,304.096 374.936,301.763 378.5,298.5 Z"/></g>
<g><path style="opacity:0.031" fill="#fbfbfb" d="M 344.5,333.5 C 344.631,334.376 344.298,335.043 343.5,335.5C 340.09,336.608 336.757,337.774 333.5,339C 334.263,339.944 335.263,340.444 336.5,340.5C 340.787,339.625 345.121,339.292 349.5,339.5C 344.745,340.942 339.745,341.608 334.5,341.5C 329.963,339.898 323.297,339.232 314.5,339.5C 305.825,339.953 297.158,340.12 288.5,340C 291.956,339.82 295.289,339.153 298.5,338C 294.516,338.186 290.516,338.186 286.5,338C 291.083,336.927 295.749,336.427 300.5,336.5C 310.496,337.281 320.496,337.447 330.5,337C 335.358,336.452 340.025,335.286 344.5,333.5 Z"/></g>
<g><path style="opacity:0.625" fill="#e8e8e8" d="M 255.5,399.5 C 263.105,403.3 271.105,405.966 279.5,407.5C 278.652,408.991 277.319,409.658 275.5,409.5C 267.721,408.52 260.721,405.687 254.5,401C 255.056,400.617 255.389,400.117 255.5,399.5 Z"/></g>
<g><path style="opacity:0.406" fill="#e9e9e9" d="M 163.5,387.5 C 166.904,389.577 169.404,392.577 171,396.5C 173.426,402.293 174.426,408.293 174,414.5C 171.518,405.384 167.684,396.884 162.5,389C 163.056,388.617 163.389,388.117 163.5,387.5 Z"/></g>
</svg>
